<?xml version="1.0" encoding="utf-8"?><svg viewBox="0 0 40 40" xmlns="http://www.w3.org/2000/svg" xmlns:xlink="http://www.w3.org/1999/xlink"><style>:root>svg{display:none}:root>svg:target{display:block}</style><svg viewBox="0 0 24 24" id="answer" xmlns="http://www.w3.org/2000/svg"><g clip-path="url(#aa)"><path d="M10.72 20.8h8.698l-2.189 2.19a.593.593 0 1 0 .837.837l3.083-3.083a.789.789 0 0 0 0-1.114l-3.083-3.083a.593.593 0 1 0-.837.837l2.21 2.21v.021h-8.72a6.921 6.921 0 0 1-6.913-6.913V.592a.593.593 0 1 0-1.185 0v12.11c0 4.466 3.633 8.099 8.098 8.099Z"/></g><defs><clipPath id="aa"><path transform="rotate(180 12 12)" d="M0 0h24v24H0z"/></clipPath></defs></svg><svg viewBox="0 0 12 12" id="close" xmlns="http://www.w3.org/2000/svg"><path d="m10 2-8 8M2 2l8 8" stroke-width="1.5" stroke-linecap="round" stroke-linejoin="round"/></svg><svg viewBox="0 0 40 40" id="load-file" xmlns="http://www.w3.org/2000/svg"><path d="M27.261 17.316v-7.57c0-.217-.1-.417-.241-.575L18.533.259A.846.846 0 0 0 17.924 0H4.468C1.984 0 0 2.026 0 4.51v25.444a4.455 4.455 0 0 0 4.468 4.477H15.09C17.099 37.766 20.75 40 24.91 40c6.32 0 11.48-5.136 11.48-11.463.009-5.527-3.96-10.146-9.129-11.221Zm-8.503-14.39 5.694 5.994h-3.693c-1.1 0-2.001-.908-2.001-2.009V2.926ZM4.468 32.764c-1.558 0-2.8-1.251-2.8-2.81V4.51c0-1.567 1.242-2.842 2.8-2.842H17.09V6.91a3.676 3.676 0 0 0 3.669 3.677h4.835v6.51c-.25-.008-.45-.033-.667-.033-2.91 0-5.586 1.118-7.603 2.868H6.736a.836.836 0 0 0-.834.834c0 .459.375.834.834.834h9.037c-.592.833-1.084 1.667-1.467 2.584h-7.57a.836.836 0 0 0-.834.834c0 .458.375.834.834.834h7.028a11.22 11.22 0 0 0-.317 2.684c0 1.5.292 2.985.817 4.235H4.468v-.008Zm20.45 5.577c-5.401 0-9.795-4.394-9.795-9.796 0-5.402 4.385-9.796 9.796-9.796 5.41 0 9.795 4.394 9.795 9.796 0 5.402-4.393 9.796-9.795 9.796Z"/><path d="M6.736 17.424h8.445a.836.836 0 0 0 .834-.834.836.836 0 0 0-.834-.833H6.736a.836.836 0 0 0-.834.833c0 .459.375.834.834.834Zm18.774 4.968a.84.84 0 0 0-.608-.266.84.84 0 0 0-.609.266l-4.885 5.244a.83.83 0 0 0 .042 1.176.851.851 0 0 0 1.192-.042l3.451-3.693v9.104c0 .459.375.834.834.834a.836.836 0 0 0 .834-.834v-9.104l3.426 3.693a.836.836 0 0 0 .609.267c.2 0 .4-.075.567-.225a.83.83 0 0 0 .041-1.176l-4.893-5.244Z"/></svg><svg viewBox="0 0 18 18" id="star" xmlns="http://www.w3.org/2000/svg"><g clip-path="url(#da)"><path d="m18 6.954-6.54-.43L8.996.336 6.533 6.524 0 6.954l5.011 4.255-1.644 6.455 5.63-3.559 5.63 3.559-1.645-6.455L18 6.954Z"/></g><defs><clipPath id="da"><path d="M0 0h18v18H0z"/></clipPath></defs></svg></svg>